<?xml version="1.0" encoding="UTF-8" standalone="no"?>

<svg xmlns="http://www.w3.org/2000/svg"  width = "3000" height = "900">

<rect x = "400.000000" y = "800.000000" width ="200.000000" height = "60.000000"  stroke = "black" stroke-width = "3" fill = "blue" />
<rect x = "490.000000" y = "200.000000" width = "50.000000" height = "600.000000" stroke = "black" stroke-width = "3" fill = "red" />
<g transform  = "rotate(0.000000,515.000000,225.000000)">
<rect x = "390.000000" y = "200.000000" width = "500.000000" height = "50.000000" stroke = "black" stroke-width = "3" fill = "green" />
</g>
<circle cx = "515.000000" cy = "225.000000" r = "25.000000" stroke = "black" stroke-width = "3" fill = "grey"/>
<g>
<rect x = "590.000000" y = "250.000000" width = "100.000000" height = "40" stroke = "black" stroke-width = "3" fill = "yellow"/>
</g>

<g transform  = "rotate(-20.000000,640.000000,270.000000)">
<rect x = "630.000000" y = "270.000000" width = "20" height = "300.000000" stroke = "black" stroke-width = "3" fill = "orange" />
<circle cx = "640.000000" cy = "270.000000" r = "10" stroke = "black" stroke-width = "3" fill = "white"/>
</g>

<g>
<rect x = "642.606043" y = "541.907786" width = "200.000000" height = "20"  stroke = "black" stroke-width = "3" fill = "black" />
</g>

<rect x = "642.606043" y = "520.631238" width ="70.921826" height = "21.276548"  stroke = "black" stroke-width = "1.063827" fill = "blue" />
<rect x = "674.520865" y = "307.865760" width = "17.730457" height = "212.765478" stroke = "black" stroke-width = "1.063827" fill = "red" />
<rect x = "639.059952" y = "307.865760" width = "177.304565" height = "17.730457" stroke = "black" stroke-width = "1.063827" fill = "green" transform  = "rotate(0.000000,683.386093,316.730988)"/>
<circle cx = "683.386093" cy = "316.730988" r = "8.865228" stroke = "black" stroke-width = "1.063827" fill = "grey"/>
<g>
<rect x = "709.981778" y = "325.596217" width = "35.460913" height = "14.184365" stroke = "black" stroke-width = "1.063827" fill = "yellow"/>
</g>

<g transform  = "rotate(-20.000000,727.712234,325.596217)">
<rect x = "724.166143" y = "332.688399" width = "7.092183" height = "106.382739" stroke = "black" stroke-width = "1.063827" fill = "orange" />
<circle cx = "727.712234" cy = "332.688399" r = "3.546091" stroke = "black" stroke-width = "1.063827" fill = "white"/>
</g>

<g>
<rect x = "728.636361" y = "429.109383" width = "70.921826" height = "7.092183"  stroke = "black" stroke-width = "1.063827" fill = "black" />
</g>

<rect x = "728.636361" y = "425.563292" width ="12.574764" height = "3.772429"  stroke = "black" stroke-width = "0.531914" fill = "blue" />
<rect x = "734.295005" y = "387.839001" width = "3.143691" height = "37.724291" stroke = "black" stroke-width = "0.531914" fill = "red" />
<rect x = "728.007623" y = "387.839001" width = "31.436909" height = "3.143691" stroke = "black" stroke-width = "0.531914" fill = "green" transform  = "rotate(0.000000,735.866850,389.410846)"/>
<circle cx = "735.866850" cy = "389.410846" r = "1.571845" stroke = "black" stroke-width = "0.531914" fill = "grey"/>
<g>
<rect x = "740.582386" y = "390.982692" width = "6.287382" height = "2.514953" stroke = "black" stroke-width = "0.531914" fill = "yellow"/>
</g>

<g transform  = "rotate(-20.000000,743.726077,390.982692)">
<rect x = "743.097339" y = "392.240168" width = "1.257476" height = "18.862145" stroke = "black" stroke-width = "0.531914" fill = "orange" />
<circle cx = "743.726077" cy = "392.240168" r = "0.628738" stroke = "black" stroke-width = "0.531914" fill = "white"/>
</g>

<g>
<rect x = "743.889929" y = "409.336049" width = "12.574764" height = "1.257476"  stroke = "black" stroke-width = "0.531914" fill = "black" />
</g>

<rect x = "743.889929" y = "408.595833" width ="1.486375" height = "0.445913"  stroke = "black" stroke-width = "0.354609" fill = "blue" />
<rect x = "744.558798" y = "404.136707" width = "0.371594" height = "4.459126" stroke = "black" stroke-width = "0.354609" fill = "red" />
<rect x = "743.815610" y = "404.136707" width = "3.715938" height = "0.371594" stroke = "black" stroke-width = "0.354609" fill = "green" transform  = "rotate(0.000000,744.744595,404.322503)"/>
<circle cx = "744.744595" cy = "404.322503" r = "0.185797" stroke = "black" stroke-width = "0.354609" fill = "grey"/>
<g>
<rect x = "745.301986" y = "404.508300" width = "0.743188" height = "0.297275" stroke = "black" stroke-width = "0.354609" fill = "yellow"/>
</g>

<g transform  = "rotate(-20.000000,745.673579,404.508300)">
<rect x = "745.599261" y = "404.656938" width = "0.148638" height = "2.229563" stroke = "black" stroke-width = "0.354609" fill = "orange" />
<circle cx = "745.673579" cy = "404.656938" r = "0.074319" stroke = "black" stroke-width = "0.354609" fill = "white"/>
</g>

<g>
<rect x = "745.692947" y = "406.677723" width = "1.486375" height = "0.148638"  stroke = "black" stroke-width = "0.354609" fill = "black" />
</g>

<rect x = "745.692947" y = "406.590227" width ="0.131771" height = "0.039531"  stroke = "black" stroke-width = "0.265957" fill = "blue" />
<rect x = "745.752244" y = "406.194916" width = "0.032943" height = "0.395312" stroke = "black" stroke-width = "0.265957" fill = "red" />
<rect x = "745.686359" y = "406.194916" width = "0.329426" height = "0.032943" stroke = "black" stroke-width = "0.265957" fill = "green" transform  = "rotate(0.000000,745.768715,406.211387)"/>
<circle cx = "745.768715" cy = "406.211387" r = "0.016471" stroke = "black" stroke-width = "0.265957" fill = "grey"/>
<g>
<rect x = "745.818129" y = "406.227858" width = "0.065885" height = "0.026354" stroke = "black" stroke-width = "0.265957" fill = "yellow"/>
</g>

<g transform  = "rotate(-20.000000,745.851072,406.227858)">
<rect x = "745.844483" y = "406.241035" width = "0.013177" height = "0.197656" stroke = "black" stroke-width = "0.265957" fill = "orange" />
<circle cx = "745.851072" cy = "406.241035" r = "0.006589" stroke = "black" stroke-width = "0.265957" fill = "white"/>
</g>

<g>
<rect x = "745.852789" y = "406.420182" width = "0.131771" height = "0.013177"  stroke = "black" stroke-width = "0.265957" fill = "black" />
</g>

</svg>