<?xml version="1.0" encoding="UTF-8" standalone="no"?>

<svg xmlns="http://www.w3.org/2000/svg"  width = "3000" height = "900">

<rect x = "400.000000" y = "800.000000" width = "200.000000" height = "60.000000"  stroke = "black" stroke-width = "3" fill = "blue" />
<rect x = "490.000000" y = "200.000000" width = "50.000000" height = "600.000000" stroke = "black" stroke-width = "3" fill = "red" />
<g transform  = "rotate(0.000000,515.000000,225.000000)">
<rect x = "390.000000" y = "200.000000" width = "500.000000" height = "50.000000" stroke = "black" stroke-width = "3" fill = "green" />
</g>
<circle cx = "515.000000" cy = "225.000000" r = "25.000000" stroke = "black" stroke-width = "3" fill = "grey"/>
<g>
<rect x = "590.000000" y = "250.000000" width = "100.000000" height = "40" stroke = "black" stroke-width = "3" fill = "yellow"/>
</g>

<g transform  = "rotate(0.000000,640.000000,270.000000)">
<rect x = "639.285008" y = "270.000000" width = "20" height = "300.000000" stroke = "black" stroke-width = "3" fill = "orange" />
<circle cx = "640.000000" cy = "270.000000" r = "10" stroke = "black" stroke-width = "3" fill = "white"/>
</g>

<g>
<rect x = "540.000000" y = "560.000000" width = "200.000000" height = "20"  stroke = "black" stroke-width = "3" fill = "black" />
</g>

<rect x = "640.000000" y = "535.163950" width ="82.786833" height = "24.836050"  stroke = "black" stroke-width = "1.241803" fill = "blue" />
<rect x = "677.254075" y = "286.803450" width = "20.696708" height = "248.360500" stroke = "black" stroke-width = "1.241803" fill = "red" />
<rect x = "635.860658" y = "286.803450" width = "206.967083" height = "20.696708" stroke = "black" stroke-width = "1.241803" fill = "green" transform  = "rotate(0.000000,687.602429,297.151804)"/>
<circle cx = "687.602429" cy = "297.151804" r = "10.348354" stroke = "black" stroke-width = "1.241803" fill = "grey"/>
<g>
<rect x = "718.647492" y = "307.500158" width = "41.393417" height = "1.183838" stroke = "black" stroke-width = "1.241803" fill = "yellow"/>
</g>

<g transform  = "rotate(0.000000,739.344200,307.500158)">
<rect x = "739.048240" y = "308.092077" width = "0.591919" height = "124.180250" stroke = "black" stroke-width = "1.241803" fill = "orange" />
<circle cx = "739.344200" cy = "308.092077" r = "0.295960" stroke = "black" stroke-width = "1.241803" fill = "white"/>
</g>

<g>
<rect x = "697.950783" y = "431.976368" width = "82.786833" height = "0.591919"  stroke = "black" stroke-width = "1.241803" fill = "black" />
</g>

<rect x = "715.084933" y = "426.907687" width ="17.134149" height = "5.140245"  stroke = "black" stroke-width = "0.620901" fill = "blue" />
<rect x = "722.795300" y = "375.505238" width = "4.283537" height = "51.402448" stroke = "black" stroke-width = "0.620901" fill = "red" />
<rect x = "714.228225" y = "375.505238" width = "42.835374" height = "4.283537" stroke = "black" stroke-width = "0.620901" fill = "green" transform  = "rotate(0.000000,724.937069,377.647007)"/>
<circle cx = "724.937069" cy = "377.647007" r = "2.141769" stroke = "black" stroke-width = "0.620901" fill = "grey"/>
<g>
<rect x = "731.362375" y = "379.788776" width = "8.567075" height = "0.245016" stroke = "black" stroke-width = "0.620901" fill = "yellow"/>
</g>

<g transform  = "rotate(0.000000,735.645912,379.788776)">
<rect x = "735.584658" y = "379.911284" width = "0.122508" height = "25.701224" stroke = "black" stroke-width = "0.620901" fill = "orange" />
<circle cx = "735.645912" cy = "379.911284" r = "0.061254" stroke = "black" stroke-width = "0.620901" fill = "white"/>
</g>

<g>
<rect x = "727.078837" y = "405.551254" width = "17.134149" height = "0.122508"  stroke = "black" stroke-width = "0.620901" fill = "black" />
</g>

</svg>