<?xml version="1.0" encoding="UTF-8" standalone="no"?>

<svg xmlns="http://www.w3.org/2000/svg"  width = "900" height = "900">

<rect x = "400.000000" y = "800.000000" width = "200.000000" height = "60.000000"  stroke = "black" stroke-width = "3" fill = "blue" />
<rect x = "490.000000" y = "200.000000" width = "50.000000" height = "600.000000" stroke = "black" stroke-width = "3" fill = "red" />
<g transform  = "rotate(0.000000,515.000000,225.000000)">
<rect x = "390.000000" y = "200.000000" width = "500.000000" height = "50.000000" stroke = "black" stroke-width = "3" fill = "green" />
</g>
<circle cx = "515.000000" cy = "225.000000" r = "25.000000" stroke = "black" stroke-width = "3" fill = "grey"/>
<g>
<rect x = "590.000000" y = "250.000000" width = "100.000000" height = "40" stroke = "black" stroke-width = "3" fill = "yellow"/>
</g>

<g transform  = "rotate(-20.000000,640.000000,270.000000)">
<rect x = "630.000000" y = "270.000000" width = "20" height = "300.000000" stroke = "black" stroke-width = "3" fill = "orange" />
<circle cx = "640.000000" cy = "270.000000" r = "10" stroke = "black" stroke-width = "3" fill = "white"/>
</g>

<g>
<rect x = "642.606043" y = "541.907786" width = "200.000000" height = "20"  stroke = "black" stroke-width = "3" fill = "black" />
</g>

<rect x = "702.606043" y = "520.631238" width ="70.921826" height = "21.276548"  stroke = "black" stroke-width = "1.063827" fill = "blue" />
<rect x = "734.520865" y = "307.865760" width = "17.730457" height = "212.765478" stroke = "black" stroke-width = "1.063827" fill = "red" />
<rect x = "699.059952" y = "307.865760" width = "177.304565" height = "17.730457" stroke = "black" stroke-width = "1.063827" fill = "green" transform  = "rotate(0.000000,743.386093,316.730988)"/>
<circle cx = "743.386093" cy = "316.730988" r = "8.865228" stroke = "black" stroke-width = "1.063827" fill = "grey"/>
<g>
<rect x = "769.981778" y = "325.596217" width = "35.460913" height = "14.184365" stroke = "black" stroke-width = "1.063827" fill = "yellow"/>
</g>

<g transform  = "rotate(-20.000000,787.712234,325.596217)">
<rect x = "784.166143" y = "332.688399" width = "7.092183" height = "106.382739" stroke = "black" stroke-width = "1.063827" fill = "orange" />
<circle cx = "787.712234" cy = "332.688399" r = "3.546091" stroke = "black" stroke-width = "1.063827" fill = "white"/>
</g>

<g>
<rect x = "788.636361" y = "429.109383" width = "70.921826" height = "7.092183"  stroke = "black" stroke-width = "1.063827" fill = "black" />
</g>

<rect x = "796.181219" y = "425.563292" width ="12.574764" height = "3.772429"  stroke = "black" stroke-width = "0.531914" fill = "blue" />
<rect x = "801.839863" y = "387.839001" width = "3.143691" height = "37.724291" stroke = "black" stroke-width = "0.531914" fill = "red" />
<rect x = "795.552481" y = "387.839001" width = "31.436909" height = "3.143691" stroke = "black" stroke-width = "0.531914" fill = "green" transform  = "rotate(0.000000,803.411708,389.410846)"/>
<circle cx = "803.411708" cy = "389.410846" r = "1.571845" stroke = "black" stroke-width = "0.531914" fill = "grey"/>
<g>
<rect x = "808.127244" y = "390.982692" width = "6.287382" height = "2.514953" stroke = "black" stroke-width = "0.531914" fill = "yellow"/>
</g>

<g transform  = "rotate(-20.000000,811.270935,390.982692)">
<rect x = "810.642197" y = "392.240168" width = "1.257476" height = "18.862145" stroke = "black" stroke-width = "0.531914" fill = "orange" />
<circle cx = "811.270935" cy = "392.240168" r = "0.628738" stroke = "black" stroke-width = "0.531914" fill = "white"/>
</g>

<g>
<rect x = "811.434787" y = "409.336049" width = "12.574764" height = "1.257476"  stroke = "black" stroke-width = "0.531914" fill = "black" />
</g>

</svg>
